# xmcd
#
# Track frame offsets:
#	150
#	15869
#	30166
#	45063
#	58576
#	73249
#	86526
#	100641
#	114064
#	125539
#	139338
#	154729
#	169580
#	183247
#
# Disc length: 2633 seconds
#
# Revision: 1
# Processed by: cddbd v1.5.2PL0 Copyright (c) Steve Scherf et al.
# Submitted via: audiograbber 1.83.01
#
DISCID=9c0a470e
DTITLE=Tex Robinson - Wanna Stay
DYEAR=2011
DGENRE=Country
TTITLE0=Catfish John
TTITLE1=Don´t Tell Me On The Phone
TTITLE2=You Never Know
TTITLE3=Shenandoah Wind
TTITLE4=Life Didn´t Treat Her So Kind
TTITLE5=Freight Train Boogie
TTITLE6=You Taught Me How To Cry
TTITLE7=Where Shall I Go
TTITLE8=Come On - I Need Somebody´s Love
TTITLE9=If I Needed You
TTITLE10=Coca Cola Cowboy
TTITLE11=A White Sportcoat (And A Pink Carnation)
TTITLE12=I Wanna Stay With You
TTITLE13=Wann´s für mi ka Morgen mehr gibt
EXTD=
EXTT0=
EXTT1=
EXTT2=
EXTT3=
EXTT4=
EXTT5=
EXTT6=
EXTT7=
EXTT8=
EXTT9=
EXTT10=
EXTT11=
EXTT12=
EXTT13=
PLAYORDER=
